<svg xmlns="http://www.w3.org/2000/svg" viewBox="0 0 96.03 135.83"><defs><style>.cls-1{fill:#00b3cd;}.cls-2{fill:#3acfe2;}.cls-3{fill:#2b445b;opacity:0.36;}.cls-4{fill:#f5f2e6;}.cls-5{fill:#112d47;stroke:#fff;stroke-miterlimit:10;}.cls-6{fill:#fba92d;}.cls-7{fill:#ee8d01;}.cls-8{fill:#fff;}.cls-9{fill:#f4e634;}</style></defs><title>main_beaker</title><g id="Layer_2" data-name="Layer 2"><g id="Layer_1-2" data-name="Layer 1"><path class="cls-1" d="M94.88,119.4a11.13,11.13,0,0,0-.87-1.51l-31.73-55V10.7h2.28a3.33,3.33,0,0,0,0-6.65H31.47a3.33,3.33,0,1,0,0,6.65h2.28V63L2.26,117.56a11.43,11.43,0,0,0,9.19,18.25H84.82A11.41,11.41,0,0,0,94.88,119.4Z"/><path class="cls-2" d="M14.88,123.69a12.17,12.17,0,0,1,1.44-2.5l33.5-58V7.53H47.4A3.54,3.54,0,0,1,43.87,4H31.47a3.33,3.33,0,1,0,0,6.65h2.28V63L2.26,117.56a11.43,11.43,0,0,0,9.19,18.25h5a12.15,12.15,0,0,1-1.56-12.12Z"/><circle class="cls-3" cx="56.2" cy="109.12" r="22.95"/><path class="cls-4" d="M42.72,56.77A1.26,1.26,0,0,1,41.47,58h0a1.26,1.26,0,0,1-1.26-1.26V15a1.26,1.26,0,0,1,1.26-1.25h0A1.26,1.26,0,0,1,42.72,15Z"/><circle class="cls-5" cx="48.02" cy="102.97" r="25.13"/><circle class="cls-6" cx="54.99" cy="46.7" r="3.28"/><circle class="cls-7" cx="56.1" cy="64.51" r="2.77"/><circle class="cls-7" cx="47.7" cy="52.75" r="2.77"/><circle class="cls-7" cx="52.32" cy="28.84" r="7.7"/><circle class="cls-6" cx="42.75" cy="5.23" r="5.23"/><circle class="cls-7" cx="57.65" cy="14.91" r="2.36"/><circle class="cls-8" cx="41.47" cy="3.82" r="2.05"/><circle class="cls-8" cx="49.65" cy="26.1" r="2.52"/><circle class="cls-8" cx="57.27" cy="14.4" r="0.63"/><circle class="cls-8" cx="53.78" cy="45.7" r="1.21"/><circle class="cls-8" cx="47.13" cy="52.32" r="1.45"/><circle class="cls-8" cx="55.4" cy="63.81" r="1.21"/><polygon class="cls-9" points="49.52 85.08 40.61 98.86 49.52 103.31 45.06 121.95 58.44 99.26 49.52 96.43 49.52 85.08"/></g></g></svg>